<svg width="800" height="660" viewBox="0 0 800 660" fill="none" xmlns="http://www.w3.org/2000/svg">
<g style="mix-blend-mode:overlay" opacity="0.07" clip-path="url(#clip0_59_336)">
<path d="M-161.465 89.8C-144.485 81.4601 -126.005 76.66 -107.345 75.7C-86.705 74.58 -66.285 69.2401 -47.485 60.0601C-28.305 51.7001 -11.0251 39.6 3.19495 24.6C16.015 11 31.6349 0.0400391 48.995 -7.47995C65.975 -15.8199 84.435 -20.62 103.115 -21.58C121.895 -22.5999 140.475 -27.14 157.835 -34.86C158.695 -35.2199 159.535 -35.64 160.395 -36.0399C161.255 -36.4399 162.115 -36.7999 162.955 -37.2199C180.075 -45.4599 195.595 -56.66 208.535 -70.32C221.355 -83.92 236.995 -94.88 254.355 -102.42C271.335 -110.76 289.815 -115.56 308.475 -116.52C329.115 -117.64 349.535 -122.98 368.335 -132.16C387.515 -140.52 404.795 -152.62 419.015 -167.62C431.835 -181.22 447.455 -192.18 464.815 -199.7C481.795 -208.04 500.255 -212.84 518.935 -213.8C537.715 -214.82 556.295 -219.36 573.655 -227.08C574.515 -227.44 575.355 -227.86 576.215 -228.26C577.075 -228.66 577.935 -229.02 578.775 -229.44C595.895 -237.68 611.415 -248.88 624.355 -262.54C633.495 -272.24 644.095 -280.56 655.715 -287.3L649.435 -300.9C636.015 -293.32 623.795 -283.8 613.235 -272.7C601.055 -259.78 586.295 -249.28 569.975 -241.8C553.695 -234.22 536.155 -229.78 518.415 -228.88C497.775 -227.76 477.355 -222.44 458.575 -213.24C439.395 -204.88 422.115 -192.78 407.895 -177.78C395.075 -164.18 379.455 -153.22 362.095 -145.7C345.115 -137.36 326.635 -132.56 307.975 -131.6C287.335 -130.48 266.915 -125.14 248.115 -115.96C228.955 -107.6 211.655 -95.5 197.435 -80.5C185.255 -67.58 170.495 -57.08 154.175 -49.6C137.895 -42.02 120.355 -37.58 102.615 -36.68C81.975 -35.56 61.555 -30.24 42.775 -21.0399C23.595 -12.68 6.31494 -0.579956 -7.90506 14.42C-20.7251 28.0201 -36.345 38.98 -53.705 46.5C-70.685 54.84 -89.165 59.64 -107.825 60.6C-128.465 61.72 -148.885 67.0601 -167.685 76.2401C-186.845 84.6 -204.145 96.7 -218.365 111.7C-231.185 125.3 -246.825 136.26 -264.165 143.8L-257.925 157.3C-238.765 148.94 -221.465 136.84 -207.245 121.84C-194.425 108.24 -178.785 97.2801 -161.425 89.7401L-161.465 89.8Z" fill="white"/>
<path d="M-79.6852 251.64C-62.7052 243.3 -44.2253 238.5 -25.5652 237.54C-4.92525 236.42 15.4947 231.08 34.2947 221.9C53.4747 213.54 70.7547 201.44 84.9747 186.44C97.7947 172.84 113.415 161.88 130.775 154.36C147.755 146.02 166.215 141.22 184.895 140.26C203.675 139.24 222.255 134.7 239.615 126.98C240.475 126.62 241.315 126.2 242.175 125.8C243.035 125.4 243.895 125.04 244.735 124.62C261.855 116.38 277.375 105.18 290.315 91.52C303.135 77.92 318.775 66.96 336.135 59.42C353.115 51.08 371.595 46.28 390.255 45.32C410.895 44.2 431.315 38.86 450.115 29.68C469.295 21.32 486.575 9.21999 500.795 -5.78001C513.615 -19.38 529.235 -30.34 546.595 -37.86C563.575 -46.2 582.035 -51 600.715 -51.96C619.495 -52.98 638.075 -57.52 655.435 -65.24C656.295 -65.6 657.135 -66.02 657.995 -66.42C658.855 -66.82 659.715 -67.18 660.555 -67.6C677.675 -75.84 693.195 -87.04 706.135 -100.7C715.275 -110.4 725.875 -118.72 737.495 -125.46L731.215 -139.06C717.795 -131.48 705.575 -121.96 695.015 -110.86C682.835 -97.94 668.075 -87.44 651.755 -79.96C635.475 -72.38 617.935 -67.94 600.195 -67.04C579.555 -65.92 559.135 -60.6 540.355 -51.4C521.175 -43.04 503.895 -30.94 489.675 -15.94C476.855 -2.33998 461.235 8.62 443.875 16.14C426.895 24.48 408.415 29.28 389.755 30.24C369.115 31.36 348.695 36.7 329.895 45.88C310.735 54.24 293.435 66.34 279.215 81.34C267.035 94.26 252.275 104.76 235.955 112.24C219.675 119.82 202.135 124.26 184.395 125.16C163.755 126.28 143.335 131.6 124.555 140.8C105.375 149.16 88.0947 161.26 73.8747 176.26C61.0547 189.86 45.4347 200.82 28.0747 208.34C11.0947 216.68 -7.38525 221.48 -26.0453 222.44C-46.6853 223.56 -67.1053 228.9 -85.9053 238.08C-105.065 246.44 -122.365 258.54 -136.585 273.54C-149.405 287.14 -165.045 298.1 -182.385 305.64L-176.145 319.14C-156.985 310.78 -139.685 298.68 -125.465 283.68C-112.645 270.08 -97.0053 259.12 -79.6453 251.58L-79.6852 251.64Z" fill="white"/>
<path d="M2.11505 413.5C19.095 405.16 37.575 400.36 56.235 399.4C76.875 398.28 97.295 392.94 116.095 383.76C135.275 375.4 152.555 363.3 166.775 348.3C179.595 334.7 195.215 323.74 212.575 316.22C229.555 307.88 248.015 303.08 266.695 302.12C285.475 301.1 304.055 296.56 321.415 288.84C322.275 288.48 323.115 288.06 323.975 287.66C324.835 287.26 325.695 286.9 326.535 286.48C343.655 278.24 359.175 267.04 372.115 253.38C384.935 239.78 400.575 228.82 417.935 221.28C434.915 212.94 453.395 208.14 472.055 207.18C492.695 206.06 513.115 200.72 531.915 191.54C551.095 183.18 568.375 171.08 582.595 156.08C595.415 142.48 611.035 131.52 628.395 124C645.375 115.66 663.835 110.86 682.515 109.9C701.295 108.88 719.875 104.34 737.235 96.6201C738.095 96.2601 738.935 95.84 739.795 95.44C740.655 95.04 741.515 94.68 742.355 94.26C759.475 86.02 774.995 74.82 787.935 61.16C797.075 51.46 807.675 43.1401 819.295 36.4001L813.015 22.8C799.595 30.38 787.375 39.9 776.815 51C764.635 63.92 749.875 74.4201 733.555 81.9001C717.275 89.4801 699.735 93.92 681.995 94.82C661.355 95.94 640.935 101.26 622.155 110.46C602.975 118.82 585.695 130.92 571.475 145.92C558.655 159.52 543.035 170.48 525.675 178C508.695 186.34 490.215 191.14 471.555 192.1C450.915 193.22 430.495 198.56 411.695 207.74C392.535 216.1 375.235 228.2 361.015 243.2C348.835 256.12 334.075 266.62 317.755 274.1C301.475 281.68 283.935 286.12 266.195 287.02C245.555 288.14 225.135 293.46 206.355 302.66C187.175 311.02 169.895 323.12 155.675 338.12C142.855 351.72 127.235 362.68 109.875 370.2C92.895 378.54 74.415 383.34 55.755 384.3C35.115 385.42 14.6951 390.76 -4.10495 399.94C-23.265 408.3 -40.565 420.4 -54.785 435.4C-67.605 449 -83.245 459.96 -100.585 467.5L-94.345 481C-75.185 472.64 -57.885 460.54 -43.665 445.54C-30.845 431.94 -15.205 420.98 2.15503 413.44L2.11505 413.5Z" fill="white"/>
<path d="M83.8948 575.34C100.875 567 119.355 562.2 138.015 561.24C158.655 560.12 179.075 554.78 197.875 545.6C217.055 537.24 234.335 525.14 248.555 510.14C261.375 496.54 276.995 485.58 294.355 478.06C311.335 469.72 329.795 464.92 348.475 463.96C367.255 462.94 385.835 458.4 403.195 450.68C404.055 450.32 404.895 449.9 405.755 449.5C406.615 449.1 407.475 448.74 408.315 448.32C425.435 440.08 440.955 428.88 453.895 415.22C466.715 401.62 482.355 390.66 499.715 383.12C516.695 374.78 535.175 369.98 553.835 369.02C574.475 367.9 594.895 362.56 613.695 353.38C632.875 345.02 650.155 332.92 664.375 317.92C677.195 304.32 692.815 293.36 710.175 285.84C727.155 277.5 745.615 272.7 764.295 271.74C783.075 270.72 801.655 266.18 819.015 258.46C819.875 258.1 820.715 257.68 821.575 257.28C822.435 256.88 823.295 256.52 824.135 256.1C841.255 247.86 856.775 236.66 869.715 223C878.855 213.3 889.455 204.98 901.075 198.24L894.795 184.64C881.375 192.22 869.155 201.74 858.595 212.84C846.415 225.76 831.655 236.26 815.335 243.74C799.055 251.32 781.515 255.76 763.775 256.66C743.135 257.78 722.715 263.1 703.935 272.3C684.755 280.66 667.475 292.76 653.255 307.76C640.435 321.36 624.815 332.32 607.455 339.84C590.475 348.18 571.995 352.98 553.335 353.94C532.695 355.06 512.275 360.4 493.475 369.58C474.315 377.94 457.015 390.04 442.795 405.04C430.615 417.96 415.855 428.46 399.535 435.94C383.255 443.52 365.715 447.96 347.975 448.86C327.335 449.98 306.915 455.3 288.135 464.5C268.955 472.86 251.675 484.96 237.455 499.96C224.635 513.56 209.015 524.52 191.655 532.04C174.675 540.38 156.195 545.18 137.535 546.14C116.895 547.26 96.4748 552.6 77.6748 561.78C58.5148 570.14 41.2148 582.24 26.9948 597.24C14.1748 610.84 -1.46518 621.8 -18.8052 629.34L-12.5652 642.84C6.59483 634.48 23.8948 622.38 38.1148 607.38C50.9348 593.78 66.5748 582.82 83.9348 575.28L83.8948 575.34Z" fill="white"/>
<path d="M165.675 737.18C182.655 728.84 201.135 724.04 219.795 723.08C240.435 721.96 260.855 716.62 279.655 707.44C298.835 699.08 316.115 686.98 330.335 671.98C343.155 658.38 358.775 647.42 376.135 639.9C393.115 631.56 411.575 626.76 430.255 625.8C449.035 624.78 467.615 620.24 484.975 612.52C485.835 612.16 486.675 611.74 487.535 611.34C488.395 610.94 489.255 610.58 490.095 610.16C507.215 601.92 522.735 590.72 535.675 577.06C548.495 563.46 564.135 552.5 581.495 544.96C598.475 536.62 616.955 531.82 635.615 530.86C656.255 529.74 676.675 524.4 695.475 515.22C714.655 506.86 731.935 494.76 746.155 479.76C758.975 466.16 774.595 455.2 791.955 447.68C808.935 439.34 827.395 434.54 846.075 433.58C864.855 432.56 883.435 428.02 900.795 420.3C901.655 419.94 902.495 419.52 903.355 419.12C904.215 418.72 905.075 418.36 905.915 417.94C923.035 409.7 938.555 398.5 951.495 384.84C960.635 375.14 971.235 366.82 982.855 360.08L976.575 346.48C963.155 354.06 950.935 363.58 940.375 374.68C928.195 387.6 913.435 398.1 897.115 405.58C880.835 413.16 863.295 417.6 845.555 418.5C824.915 419.62 804.495 424.94 785.715 434.14C766.535 442.5 749.255 454.6 735.035 469.6C722.215 483.2 706.595 494.16 689.235 501.68C672.255 510.02 653.775 514.82 635.115 515.78C614.475 516.9 594.055 522.24 575.255 531.42C556.095 539.78 538.795 551.88 524.575 566.88C512.395 579.8 497.635 590.3 481.315 597.78C465.035 605.36 447.495 609.8 429.755 610.7C409.115 611.82 388.695 617.14 369.915 626.34C350.735 634.7 333.455 646.8 319.235 661.8C306.415 675.4 290.795 686.36 273.435 693.88C256.455 702.22 237.975 707.02 219.315 707.98C198.675 709.1 178.255 714.44 159.455 723.62C140.295 731.98 122.995 744.08 108.775 759.08C95.9551 772.68 80.3151 783.64 62.9751 791.18L69.2151 804.68C88.3751 796.32 105.675 784.22 119.895 769.22C132.715 755.62 148.355 744.66 165.715 737.12L165.675 737.18Z" fill="white"/>
<path d="M247.475 899.02C264.455 890.68 282.935 885.88 301.595 884.92C322.235 883.8 342.655 878.46 361.455 869.28C380.635 860.92 397.915 848.82 412.135 833.82C424.955 820.22 440.575 809.26 457.935 801.74C474.915 793.4 493.375 788.6 512.055 787.64C530.835 786.62 549.415 782.08 566.775 774.36C567.635 774 568.475 773.58 569.335 773.18C570.195 772.78 571.055 772.42 571.895 772C589.015 763.76 604.535 752.56 617.475 738.9C630.295 725.3 645.935 714.34 663.295 706.8C680.275 698.46 698.755 693.66 717.415 692.7C738.055 691.58 758.475 686.24 777.275 677.06C796.455 668.7 813.735 656.6 827.955 641.6C840.775 628 856.395 617.04 873.755 609.52C890.735 601.18 909.195 596.38 927.875 595.42C946.655 594.4 965.235 589.86 982.595 582.14C983.455 581.78 984.295 581.36 985.155 580.96C986.015 580.56 986.875 580.2 987.715 579.78C1004.83 571.54 1020.35 560.34 1033.29 546.68C1042.43 536.98 1053.03 528.66 1064.65 521.92L1058.37 508.32C1044.95 515.9 1032.73 525.42 1022.17 536.52C1009.99 549.44 995.235 559.94 978.915 567.42C962.635 575 945.095 579.44 927.355 580.34C906.715 581.46 886.295 586.78 867.515 595.98C848.335 604.34 831.055 616.44 816.835 631.44C804.015 645.04 788.395 656 771.035 663.52C754.055 671.86 735.575 676.66 716.915 677.62C696.275 678.74 675.855 684.08 657.055 693.26C637.895 701.62 620.595 713.72 606.375 728.72C594.195 741.64 579.435 752.14 563.115 759.62C546.835 767.2 529.295 771.64 511.555 772.54C490.915 773.66 470.495 778.98 451.715 788.18C432.535 796.54 415.255 808.64 401.035 823.64C388.215 837.24 372.595 848.2 355.235 855.72C338.255 864.06 319.775 868.86 301.115 869.82C280.475 870.94 260.055 876.28 241.255 885.46C222.095 893.82 204.795 905.92 190.575 920.92C177.755 934.52 162.115 945.48 144.775 953.02L151.015 966.52C170.175 958.16 187.475 946.06 201.695 931.06C214.515 917.46 230.155 906.5 247.515 898.96L247.475 899.02Z" fill="white"/>
</g>
<defs>
<clipPath id="clip0_59_336">
<rect width="1328.82" height="1267.44" fill="white" transform="translate(-264.205 -300.86)"/>
</clipPath>
</defs>
</svg>
