<svg width="80" height="80" viewBox="0 0 80 80" fill="none" xmlns="http://www.w3.org/2000/svg">
<rect width="80" height="80" rx="40" fill="#F3F7FF"/>
<path fill-rule="evenodd" clip-rule="evenodd" d="M40 62.3125C45.9176 62.3125 51.5929 59.9617 55.7773 55.7773C59.9617 51.5929 62.3125 45.9176 62.3125 40C62.3125 34.0824 59.9617 28.4071 55.7773 24.2227C51.5929 20.0383 45.9176 17.6875 40 17.6875C34.0824 17.6875 28.4071 20.0383 24.2227 24.2227C20.0383 28.4071 17.6875 34.0824 17.6875 40C17.6875 45.9176 20.0383 51.5929 24.2227 55.7773C28.4071 59.9617 34.0824 62.3125 40 62.3125ZM40 65.5C46.763 65.5 53.249 62.8134 58.0312 58.0312C62.8134 53.249 65.5 46.763 65.5 40C65.5 33.237 62.8134 26.751 58.0312 21.9688C53.249 17.1866 46.763 14.5 40 14.5C33.237 14.5 26.751 17.1866 21.9688 21.9688C17.1866 26.751 14.5 33.237 14.5 40C14.5 46.763 17.1866 53.249 21.9688 58.0312C26.751 62.8134 33.237 65.5 40 65.5Z" fill="black"/>
<path d="M42.9642 35.499L35.6648 36.4138L35.4035 37.6251L36.8378 37.8896C37.775 38.1128 37.9598 38.4506 37.7558 39.3846L35.4035 50.4388C34.7851 53.298 35.7382 54.6432 37.979 54.6432C39.7162 54.6432 41.7338 53.8399 42.6487 52.737L42.9292 51.411C42.2917 51.972 41.3609 52.1952 40.7425 52.1952C39.866 52.1952 39.5472 51.58 39.7735 50.4962L42.9642 35.499Z" fill="black"/>
<path d="M40 32.0312C41.7604 32.0312 43.1875 30.6042 43.1875 28.8438C43.1875 27.0833 41.7604 25.6562 40 25.6562C38.2396 25.6562 36.8125 27.0833 36.8125 28.8438C36.8125 30.6042 38.2396 32.0312 40 32.0312Z" fill="black"/>
</svg>
