<svg width="81" height="81" viewBox="0 0 81 81" fill="none" xmlns="http://www.w3.org/2000/svg">
<rect x="0.5" y="0.5" width="80" height="80" rx="40" fill="#0E9CA5"/>
<path fill-rule="evenodd" clip-rule="evenodd" d="M40.5 62.8125C46.4176 62.8125 52.0929 60.4617 56.2773 56.2773C60.4617 52.0929 62.8125 46.4176 62.8125 40.5C62.8125 34.5824 60.4617 28.9071 56.2773 24.7227C52.0929 20.5383 46.4176 18.1875 40.5 18.1875C34.5824 18.1875 28.9071 20.5383 24.7227 24.7227C20.5383 28.9071 18.1875 34.5824 18.1875 40.5C18.1875 46.4176 20.5383 52.0929 24.7227 56.2773C28.9071 60.4617 34.5824 62.8125 40.5 62.8125ZM40.5 66C47.263 66 53.749 63.3134 58.5312 58.5312C63.3134 53.749 66 47.263 66 40.5C66 33.737 63.3134 27.251 58.5312 22.4688C53.749 17.6866 47.263 15 40.5 15C33.737 15 27.251 17.6866 22.4688 22.4688C17.6866 27.251 15 33.737 15 40.5C15 47.263 17.6866 53.749 22.4688 58.5312C27.251 63.3134 33.737 66 40.5 66Z" fill="white"/>
<path d="M43.4642 35.999L36.1648 36.9138L35.9035 38.1251L37.3378 38.3896C38.275 38.6128 38.4598 38.9506 38.2558 39.8846L35.9035 50.9388C35.2851 53.798 36.2382 55.1432 38.479 55.1432C40.2162 55.1432 42.2338 54.3399 43.1487 53.237L43.4292 51.911C42.7917 52.472 41.8609 52.6952 41.2425 52.6952C40.366 52.6952 40.0472 52.08 40.2735 50.9962L43.4642 35.999Z" fill="white"/>
<path d="M40.5 32.5312C42.2604 32.5312 43.6875 31.1042 43.6875 29.3438C43.6875 27.5833 42.2604 26.1562 40.5 26.1562C38.7396 26.1562 37.3125 27.5833 37.3125 29.3438C37.3125 31.1042 38.7396 32.5312 40.5 32.5312Z" fill="white"/>
</svg>
