<svg width="32" height="32" viewBox="0 0 32 32" fill="none" xmlns="http://www.w3.org/2000/svg">
<rect width="32" height="32" rx="16" fill="#0E9CA5"/>
<g clip-path="url(#clip0_353_574)">
<path d="M22.1551 13.815C22.5151 13.815 22.7451 13.455 22.6151 13.115C21.5851 10.475 19.0151 8.59497 15.9951 8.59497C12.9751 8.59497 10.4151 10.475 9.38508 13.115C9.25508 13.455 9.48508 13.815 9.84508 13.815H22.1551Z" stroke="white" stroke-width="0.8" stroke-miterlimit="10"/>
<path d="M9.61499 20.1149H21.755C22.245 20.1149 22.645 19.7849 22.645 19.3849C22.645 18.9849 22.245 18.6549 21.755 18.6549H10.505C10.015 18.6549 9.61499 18.3249 9.61499 17.9249C9.61499 17.5249 10.015 17.1949 10.505 17.1949H22.645" stroke="white" stroke-width="0.8" stroke-miterlimit="10" stroke-linecap="round"/>
<path d="M9.45508 15.2849C10.2751 15.2849 10.2751 15.7249 11.0851 15.7249C11.8951 15.7249 11.9051 15.2849 12.7251 15.2849C13.5451 15.2849 13.5451 15.7249 14.3551 15.7249C15.1651 15.7249 15.1751 15.2849 15.9951 15.2849C16.8151 15.2849 16.8151 15.7249 17.6351 15.7249C18.4551 15.7249 18.4551 15.2849 19.2651 15.2849C20.0751 15.2849 20.0851 15.7249 20.9051 15.7249C21.7251 15.7249 21.7251 15.2849 22.5451 15.2849" stroke="white" stroke-width="0.8" stroke-miterlimit="10" stroke-linecap="round"/>
<path d="M18.955 23.405H10.255C9.75497 23.405 9.34497 22.995 9.34497 22.495C9.34497 21.995 9.75497 21.585 10.255 21.585H21.745C22.245 21.585 22.655 21.995 22.655 22.495C22.655 22.995 22.245 23.405 21.745 23.405" stroke="white" stroke-width="0.8" stroke-miterlimit="10" stroke-linecap="round"/>
</g>
<defs>
<clipPath id="clip0_353_574">
<rect width="14.11" height="15.61" fill="white" transform="translate(8.94507 8.19495)"/>
</clipPath>
</defs>
</svg>
